<svg height="512pt" viewBox="0 -36 512.00065 512" width="512pt" xmlns="http://www.w3.org/2000/svg"><path d="m480.628906 215.019531v207.847657h-449.332031v-207.847657l133.511719-85.746093v-62.636719l91.15625-51.652344 90.554687 51.652344v62.636719zm0 0" fill="#ff4b22"/><path d="m346.519531 129.273438v-62.636719l-90.554687-51.652344-15.027344 8.515625 75.625 43.136719v62.636719l134.109375 85.746093v207.847657h29.957031v-207.847657zm0 0" fill="#ef4722"/><path d="m375.785156 409.070312h-239.644531v-181.839843c0-4.414063 3.578125-7.992188 7.992187-7.992188h223.664063c4.410156 0 7.988281 3.578125 7.988281 7.992188zm0 0" fill="#5c91ab"/><path d="m367.796875 219.238281h-29.953125c4.410156 0 7.988281 3.578125 7.988281 7.992188v181.839843h29.953125v-181.839843c0-4.414063-3.574218-7.992188-7.988281-7.992188zm0 0" fill="#588aa3"/><path d="m166.097656 249.214844h179.730469v159.855468h-179.730469zm0 0" fill="#ef4722"/><g fill="#fff7e6"><path d="m353.332031 416.601562v-167.386718c-.003906-4.210938-3.460937-7.539063-7.558593-7.5-20.125 0-159.046876 0-179.617188 0-4.121094-.039063-7.554688 3.300781-7.558594 7.5v167.386718c.003906 3.671876 2.65625 7.226563 7.515625 7.5h179.703125.019532c4.082031.003907 7.492187-3.324218 7.496093-7.5zm-133.789062-83.695312 28.921875-53.867188v107.738282zm43.921875-53.867188 28.917968 53.867188-28.917968 53.867188zm5.039062-22.324218h64.789063l-32.394531 60.335937zm-57.472656 60.335937-32.394531-60.335937h64.789062zm-8.511719 15.855469-28.921875 53.871094v-107.738282zm8.511719 15.859375 32.394531 60.335937h-64.789062zm89.867188 0 32.394531 60.335937h-64.789063zm8.511718-15.859375 28.921875-53.867188v107.738282zm0 0"/><path d="m373.332031 96.152344c5.230469 0 10.3125-2.746094 13.0625-7.632813 4.058594-7.210937 1.507813-16.347656-5.699219-20.414062l-117.378906-66.175781c-4.5625-2.574219-10.140625-2.574219-14.707031 0l-117.378906 66.175781c-7.207031 4.066406-9.757813 13.203125-5.695313 20.414062 4.058594 7.214844 13.195313 9.765625 20.398438 5.703125l110.03125-62.035156 110.027344 62.035156c2.324218 1.308594 4.847656 1.929688 7.339843 1.929688zm0 0"/><path d="m505.085938 212.871094-150.503907-96.226563c-6.96875-4.457031-16.230469-2.417969-20.683593 4.558594-4.453126 6.976563-2.414063 16.242187 4.558593 20.699219l150.5 96.226562c2.5 1.59375 5.289063 2.359375 8.050781 2.359375 4.941407 0 9.777344-2.445312 12.632813-6.921875 4.457031-6.972656 2.414063-16.238281-4.554687-20.695312zm0 0"/><path d="m156.71875 116.660156-149.828125 96.226563c-6.9609375 4.472656-8.984375 13.742187-4.515625 20.707031 2.859375 4.460938 7.6875 6.894531 12.617188 6.894531 2.769531 0 5.574218-.769531 8.078124-2.375l149.828126-96.226562c6.960937-4.46875 8.984374-13.742188 4.515624-20.707031-4.46875-6.964844-13.734374-8.984376-20.695312-4.519532zm0 0"/></g><path d="m255.984375 177.347656h-.042969c-17.386718 0-31.484375-14.097656-31.484375-31.488281v-.046875c0-17.386719 14.097657-31.484375 31.484375-31.484375h.042969c17.390625 0 31.484375 14.097656 31.484375 31.484375v.046875c0 17.390625-14.09375 31.488281-31.484375 31.488281zm0 0" fill="#80d8ff"/><path d="m255.960938 106.835938c-21.503907 0-38.996094 17.484374-38.996094 39.023437 0 21.492187 17.492187 38.976563 38.996094 38.976563h.007812c21.5 0 38.996094-17.484376 38.996094-39.023438 0-21.492188-17.496094-38.976562-39.003906-38.976562zm.007812 63.019531h-.007812c-13.238282 0-24.007813-10.761719-24.007813-24.042969 0-13.230469 10.769531-23.996094 24.015625-23.996094 13.238281 0 24.007812 10.765625 24.007812 24.042969 0 13.234375-10.769531 23.996094-24.007812 23.996094zm0 0" fill="#5c91ab"/><path d="m489.171875 439h-466.414063c-8.242187 0-14.921874-6.679688-14.921874-14.921875v-.128906c0-8.238281 6.679687-14.921875 14.921874-14.921875h466.414063c8.242187 0 14.921875 6.683594 14.921875 14.921875v.128906c0 8.242187-6.679688 14.921875-14.921875 14.921875zm0 0" fill="#d4e157"/><path d="m489.175781 409.027344h-29.953125c8.238282 0 14.917969 6.683594 14.917969 14.925781v.121094c0 8.242187-6.679687 14.925781-14.917969 14.925781h29.953125c8.238281 0 14.917969-6.683594 14.917969-14.925781v-.121094c0-8.242187-6.679688-14.925781-14.917969-14.925781zm0 0" fill="#c3d136"/></svg>