<svg width="100%" viewBox="0 -36 512.00065 512" xmlns="http://www.w3.org/2000/svg">
	<path opacity="0.8" fill="#8AAD4A" enable-background="new    " d="M0,345.452v10.596c3.061,0.608,6.083,1.005,9.087,1.25
	c3.459-0.066,6.915-0.204,10.357-0.499c7.293-0.622,14.182-2.347,21.333-3.704c12.294-2.337,25.147-3.14,37.005,1.467
	c10.651,4.141,20.832,7.049,32.036,8.067c7.576-1.491,15.178-2.845,22.933-2.942c0.889-0.011,1.648,0.218,2.281,0.594
	c13.44-0.102,26.708-2.258,40.11-3.087c7.012-0.434,14.129-0.639,21.113,0.271c6.386,0.83,12.435,2.968,18.771,3.85
	c6.354,0.882,12.761,0.213,19.141-0.068c4.404-1.44,9.001-2.214,13.759-2.112c6.745,0.142,13.389,1.396,20.123,1.666
	c8.522,0.341,16-2.458,24.303-3.694c7.198-1.07,13.584,0.851,20.364,2.897c13.042,3.938,24.354-0.708,37.231-2.634
	c13.68-2.045,26.979,2.229,40.521,3.261c13.357,1.016,25.661-4.53,38.917-4.438c13.24,0.094,26.324,1.957,39.504-0.123
	c12.161-1.92,24.094-4.294,36.395-1.815c14.13,2.848,27.509,6.491,42.031,3.36c11.989-2.582,22.713-4.732,34.707-0.646
	c9.99,3.405,19.307,8.314,29.9,9.037v-20.55H0V345.452z"/>
</svg>



